<svg width="233" height="55" viewBox="0 0 233 55" fill="none" xmlns="http://www.w3.org/2000/svg">
<path d="M18.4624 26.9967C18.4624 32.3134 22.0802 35.2707 27.1453 35.2707C31.4867 35.2707 35.4506 32.9112 35.6708 28.381H30.6373C30.4485 29.7967 29.1587 30.8663 27.1453 30.8663C24.7543 30.8663 23.4959 29.4506 23.4959 26.9967C23.4959 24.5743 24.7543 23.1587 27.1453 23.1587C29.1587 23.1587 30.4485 24.2283 30.6373 25.644H35.6708C35.4506 21.1138 31.4867 18.7543 27.1453 18.7543C22.0802 18.7543 18.4624 21.7115 18.4624 26.9967Z" fill="#3DD7AC"/>
<path d="M35.6708 28.381L35.7337 28.384L35.7369 28.3181H35.6708V28.381ZM30.6373 28.381V28.3181H30.5822L30.5749 28.3727L30.6373 28.381ZM30.6373 25.644L30.5749 25.6523L30.5822 25.7069H30.6373V25.644ZM35.6708 25.644V25.7069H35.7369L35.7337 25.6409L35.6708 25.644ZM18.3994 26.9967C18.3994 29.6701 19.3095 31.7564 20.862 33.1739C22.4137 34.5907 24.6008 35.3336 27.1453 35.3336V35.2077C24.6247 35.2077 22.4703 34.472 20.9469 33.081C19.4241 31.6907 18.5253 29.64 18.5253 26.9967H18.3994ZM27.1453 35.3336C29.3266 35.3336 31.4168 34.7409 32.991 33.5752C34.5665 32.4084 35.6226 30.6689 35.7337 28.384L35.608 28.3779C35.4988 30.6232 34.4629 32.3286 32.9161 33.4741C31.3678 34.6207 29.3053 35.2077 27.1453 35.2077V35.3336ZM35.6708 28.3181H30.6373V28.4439H35.6708V28.3181ZM30.5749 28.3727C30.3914 29.7487 29.1364 30.8034 27.1453 30.8034V30.9292C29.1809 30.9292 30.5056 29.8446 30.6996 28.3893L30.5749 28.3727ZM27.1453 30.8034C25.9623 30.8034 25.0687 30.4535 24.4701 29.8089C23.8708 29.1635 23.5588 28.2136 23.5588 26.9967H23.433C23.433 28.2338 23.7502 29.2186 24.3779 29.8945C25.0062 30.5712 25.9372 30.9292 27.1453 30.9292V30.8034ZM23.5588 26.9967C23.5588 25.7958 23.8707 24.8537 24.47 24.2123C25.0686 23.5714 25.9623 23.2216 27.1453 23.2216V23.0957C25.9372 23.0957 25.0063 23.4537 24.378 24.1264C23.7503 24.7983 23.433 25.7753 23.433 26.9967H23.5588ZM27.1453 23.2216C29.1364 23.2216 30.3914 24.2763 30.5749 25.6523L30.6996 25.6357C30.5056 24.1803 29.1809 23.0957 27.1453 23.0957V23.2216ZM30.6373 25.7069H35.6708V25.5811H30.6373V25.7069ZM35.7337 25.6409C35.6226 23.356 34.5665 21.6165 32.991 20.4497C31.4168 19.284 29.3266 18.6914 27.1453 18.6914V18.8172C29.3053 18.8172 31.3678 19.4043 32.9161 20.5509C34.4629 21.6964 35.4988 23.4017 35.608 25.647L35.7337 25.6409ZM27.1453 18.6914C24.6008 18.6914 22.4137 19.4343 20.8621 20.847C19.3096 22.2605 18.3994 24.339 18.3994 26.9967H18.5253C18.5253 24.3693 19.4241 22.3265 20.9468 20.9401C22.4703 19.5529 24.6247 18.8172 27.1453 18.8172V18.6914Z" fill="#3DD7AC"/>
<path d="M44.3745 27.1146C44.3745 36.6118 36.6485 44.3213 27.1049 44.3213C17.5613 44.3213 9.83525 36.6118 9.83525 27.1146C9.83525 17.6174 17.5613 9.90789 27.1049 9.90789C36.6485 9.90789 44.3745 17.6174 44.3745 27.1146Z" stroke="#3DD7AC" stroke-width="3.77866"/>
<path d="M40.6931 13.5582C42.4716 15.3367 43.8824 17.4482 44.845 19.7719C45.8075 22.0957 46.3029 24.5863 46.3029 27.1016C46.3029 29.6168 45.8075 32.1074 44.845 34.4312C43.8824 36.755 42.4716 38.8664 40.6931 40.6449L37.9844 37.9363C39.4072 36.5134 40.5359 34.8243 41.3059 32.9653C42.0759 31.1062 42.4723 29.1138 42.4723 27.1016C42.4723 25.0894 42.076 23.0969 41.3059 21.2379C40.5359 19.3789 39.4072 17.6897 37.9844 16.2669L40.6931 13.5582Z" fill="white"/>
<path d="M13.5434 40.6303C11.7648 38.8517 10.354 36.7403 9.39148 34.4165C8.42894 32.0928 7.93353 29.6021 7.93353 27.0869C7.93353 24.5717 8.42894 22.0811 9.39148 19.7573C10.354 17.4335 11.7648 15.3221 13.5434 13.5436L16.252 16.2522C14.8292 17.6751 13.7006 19.3642 12.9305 21.2232C12.1605 23.0822 11.7642 25.0747 11.7642 27.0869C11.7642 29.0991 12.1605 31.0916 12.9305 32.9506C13.7006 34.8096 14.8292 36.4988 16.252 37.9216L13.5434 40.6303Z" fill="white"/>
<path d="M170.292 28.7346L170.752 28.757L170.775 28.2747H170.292V28.7346ZM165.035 28.7346V28.2747H164.633L164.579 28.6738L165.035 28.7346ZM165.035 25.8762L164.579 25.937L164.633 26.3361H165.035V25.8762ZM170.292 25.8762V26.3361H170.775L170.752 25.8538L170.292 25.8762ZM151.86 27.289C151.86 30.1753 152.846 32.4659 154.56 34.0315C156.269 35.5918 158.656 36.3901 161.388 36.3901V35.4701C158.831 35.4701 156.683 34.7242 155.181 33.3521C153.684 31.9853 152.78 29.9553 152.78 27.289H151.86ZM161.388 36.3901C163.733 36.3901 166.003 35.7536 167.728 34.4763C169.464 33.191 170.63 31.2674 170.752 28.757L169.833 28.7123C169.725 30.9332 168.706 32.6073 167.181 33.737C165.644 34.8745 163.577 35.4701 161.388 35.4701V36.3901ZM170.292 28.2747H165.035V29.1946H170.292V28.2747ZM164.579 28.6738C164.421 29.8623 163.328 30.8703 161.388 30.8703V31.7903C163.654 31.7903 165.255 30.564 165.491 28.7954L164.579 28.6738ZM161.388 30.8703C160.232 30.8703 159.415 30.5304 158.883 29.9577C158.346 29.3795 158.037 28.4967 158.037 27.289H157.117C157.117 28.644 157.465 29.7819 158.209 30.5837C158.959 31.3909 160.048 31.7903 161.388 31.7903V30.8703ZM158.037 27.289C158.037 26.0991 158.346 25.2246 158.882 24.65C159.414 24.0805 160.231 23.7405 161.388 23.7405V22.8205C160.048 22.8205 158.959 23.2198 158.21 24.022C157.465 24.8192 157.117 25.9489 157.117 27.289H158.037ZM161.388 23.7405C163.328 23.7405 164.421 24.7485 164.579 25.937L165.491 25.8154C165.255 24.0468 163.654 22.8205 161.388 22.8205V23.7405ZM165.035 26.3361H170.292V25.4162H165.035V26.3361ZM170.752 25.8538C170.63 23.3434 169.464 21.4198 167.728 20.1345C166.003 18.8572 163.733 18.2207 161.388 18.2207V19.1407C163.577 19.1407 165.644 19.7363 167.181 20.8738C168.706 22.0035 169.725 23.6776 169.833 25.8985L170.752 25.8538ZM161.388 18.2207C158.656 18.2207 156.27 19.0189 154.561 20.5748C152.846 22.1359 151.86 24.4183 151.86 27.289H152.78C152.78 24.6398 153.683 22.6181 155.18 21.255C156.683 19.8867 158.831 19.1407 161.388 19.1407V18.2207ZM171.465 27.289C171.465 30.3151 172.547 32.61 174.35 34.141C176.142 35.6629 178.599 36.3901 181.289 36.3901V35.4701C178.754 35.4701 176.529 34.7846 174.945 33.4397C173.372 32.104 172.385 30.0784 172.385 27.289H171.465ZM181.289 36.3901C183.963 36.3901 186.411 35.6625 188.199 34.1406C189.997 32.6097 191.08 30.315 191.08 27.289H190.16C190.16 30.0784 189.172 32.1043 187.603 33.4401C186.023 34.7849 183.806 35.4701 181.289 35.4701V36.3901ZM191.08 27.289C191.08 24.2785 189.997 21.9921 188.198 20.4656C186.411 18.9482 183.963 18.2207 181.289 18.2207V19.1407C183.806 19.1407 186.023 19.8259 187.603 21.167C189.172 22.499 190.16 24.5168 190.16 27.289H191.08ZM181.289 18.2207C178.599 18.2207 176.142 18.9479 174.35 20.4653C172.547 21.9918 171.465 24.2785 171.465 27.289H172.385C172.385 24.5168 173.372 22.4993 174.945 21.1674C176.529 19.8262 178.754 19.1407 181.289 19.1407V18.2207ZM177.641 27.289C177.641 25.9993 178.015 25.1354 178.61 24.5884C179.212 24.0351 180.111 23.7405 181.289 23.7405V22.8205C179.969 22.8205 178.815 23.1502 177.987 23.9112C177.153 24.6784 176.722 25.8187 176.722 27.289H177.641ZM181.289 23.7405C182.449 23.7405 183.339 24.0344 183.937 24.5875C184.529 25.1347 184.903 25.9993 184.903 27.289H185.823C185.823 25.8187 185.391 24.6791 184.562 23.9121C183.739 23.1509 182.593 22.8205 181.289 22.8205V23.7405ZM184.903 27.289C184.903 28.5966 184.528 29.4694 183.936 30.0202C183.339 30.5764 182.449 30.8703 181.289 30.8703V31.7903C182.593 31.7903 183.74 31.4598 184.563 30.6936C185.392 29.922 185.823 28.7741 185.823 27.289H184.903ZM181.289 30.8703C180.111 30.8703 179.212 30.5757 178.611 30.0193C178.016 29.4687 177.641 28.5966 177.641 27.289H176.722C176.722 28.7741 177.152 29.9227 177.986 30.6945C178.814 31.4605 179.969 31.7903 181.289 31.7903V30.8703ZM211.586 35.6016V36.0615H212.046V35.6016H211.586ZM211.586 11.4523H212.046V10.9923H211.586V11.4523ZM206.329 11.4523V10.9923H205.869V11.4523H206.329ZM206.329 20.0278H205.869V20.1024L205.893 20.1732L206.329 20.0278ZM207.315 22.9848V23.4448H207.953L207.752 22.8394L207.315 22.9848ZM206.001 22.9848L205.572 23.1512L205.686 23.4448H206.001V22.9848ZM206.001 31.626V31.166H205.686L205.572 31.4596L206.001 31.626ZM207.315 31.626L207.752 31.7714L207.953 31.166H207.315V31.626ZM206.329 34.583L205.893 34.4376L205.869 34.5084V34.583H206.329ZM206.329 35.6016H205.869V36.0615H206.329V35.6016ZM212.046 35.6016V11.4523H211.126V35.6016H212.046ZM211.586 10.9923H206.329V11.9123H211.586V10.9923ZM205.869 11.4523V20.0278H206.789V11.4523H205.869ZM205.893 20.1732L206.879 23.1303L207.752 22.8394L206.766 19.8823L205.893 20.1732ZM207.315 22.5248H206.001V23.4448H207.315V22.5248ZM206.43 22.8184C205.987 21.6778 205.341 20.5178 204.237 19.6462C203.126 18.7695 201.599 18.2207 199.463 18.2207V19.1407C201.433 19.1407 202.748 19.6432 203.666 20.3683C204.591 21.0985 205.16 22.0905 205.572 23.1512L206.43 22.8184ZM199.463 18.2207C196.923 18.2207 194.989 19.2629 193.701 20.9431C192.424 22.6089 191.807 24.8682 191.807 27.289H192.727C192.727 25.0113 193.309 22.9665 194.431 21.5027C195.542 20.0534 197.205 19.1407 199.463 19.1407V18.2207ZM191.807 27.289C191.807 29.7097 192.424 31.9767 193.7 33.6503C194.987 35.3385 196.922 36.3901 199.463 36.3901V35.4701C197.206 35.4701 195.543 34.5503 194.432 33.0926C193.309 31.6202 192.727 29.5667 192.727 27.289H191.807ZM199.463 36.3901C201.599 36.3901 203.126 35.8413 204.237 34.9646C205.341 34.093 205.987 32.933 206.43 31.7924L205.572 31.4596C205.16 32.5203 204.591 33.5123 203.666 34.2425C202.748 34.9676 201.433 35.4701 199.463 35.4701V36.3901ZM206.001 32.086H207.315V31.166H206.001V32.086ZM206.879 31.4805L205.893 34.4376L206.766 34.7285L207.752 31.7714L206.879 31.4805ZM205.869 34.583V35.6016H206.789V34.583H205.869ZM206.329 36.0615H211.586V35.1416H206.329V36.0615ZM205.869 27.289C205.869 28.5989 205.502 29.4646 204.883 30.0124C204.253 30.5697 203.282 30.8703 201.927 30.8703V31.7903C203.397 31.7903 204.628 31.4666 205.492 30.7014C206.368 29.9268 206.789 28.7718 206.789 27.289H205.869ZM201.927 30.8703C200.572 30.8703 199.601 30.5697 198.971 30.0124C198.351 29.4646 197.984 28.5989 197.984 27.289H197.064C197.064 28.7718 197.485 29.9268 198.361 30.7014C199.226 31.4666 200.456 31.7903 201.927 31.7903V30.8703ZM197.984 27.289C197.984 25.9791 198.351 25.1231 198.968 24.5839C199.598 24.034 200.569 23.7405 201.927 23.7405V22.8205C200.459 22.8205 199.229 23.1348 198.363 23.891C197.485 24.6578 197.064 25.8061 197.064 27.289H197.984ZM201.927 23.7405C203.284 23.7405 204.256 24.034 204.885 24.5839C205.502 25.1231 205.869 25.9791 205.869 27.289H206.789C206.789 25.8061 206.368 24.6578 205.49 23.8911C204.625 23.1348 203.395 22.8205 201.927 22.8205V23.7405ZM231.676 29.7532L232.132 29.8156L232.203 29.2932H231.676V29.7532ZM226.419 29.7532V29.2932H226.064L225.974 29.6361L226.419 29.7532ZM218.501 28.4061V27.9461H218.041V28.4061H218.501ZM231.084 28.4061V28.8661H231.544V28.4061H231.084ZM218.501 25.449H218.041V25.909H218.501V25.449ZM226.156 25.449V25.909H226.616V25.449H226.156ZM213.112 27.0918C213.112 29.5339 213.873 31.8644 215.496 33.5883C217.125 35.3178 219.579 36.3901 222.87 36.3901V35.4701C219.788 35.4701 217.593 34.4725 216.166 32.9575C214.734 31.4368 214.032 29.3482 214.032 27.0918H213.112ZM222.87 36.3901C228.846 36.3901 231.771 32.4461 232.132 29.8156L231.22 29.6907C230.923 31.8573 228.395 35.4701 222.87 35.4701V36.3901ZM231.676 29.2932H226.419V30.2132H231.676V29.2932ZM225.974 29.6361C225.729 30.5658 224.654 31.1988 222.87 31.1988V32.1188C224.767 32.1188 226.451 31.4377 226.864 29.8702L225.974 29.6361ZM222.87 31.1988C221.437 31.1988 220.461 30.8751 219.852 30.3879C219.256 29.9117 218.961 29.2388 218.961 28.4061H218.041C218.041 29.479 218.435 30.4324 219.277 31.1063C220.105 31.769 221.314 32.1188 222.87 32.1188V31.1988ZM218.501 28.8661H231.084V27.9461H218.501V28.8661ZM231.544 28.4061V26.7633H230.625V28.4061H231.544ZM231.544 26.7633C231.544 24.1328 230.595 21.983 228.94 20.4948C227.291 19.0116 224.98 18.2207 222.312 18.2207V19.1407C224.802 19.1407 226.878 19.8775 228.325 21.1789C229.767 22.4753 230.625 24.3667 230.625 26.7633H231.544ZM222.312 18.2207C219.64 18.2207 217.334 19.0388 215.693 20.5795C214.048 22.1237 213.112 24.3542 213.112 27.0918H214.032C214.032 24.5725 214.887 22.5974 216.322 21.2503C217.761 19.8997 219.826 19.1407 222.312 19.1407V18.2207ZM218.961 25.449C218.961 24.9408 219.136 24.459 219.596 24.092C220.071 23.7132 220.906 23.412 222.312 23.412V22.492C220.793 22.492 219.722 22.815 219.023 23.3726C218.309 23.942 218.041 24.7088 218.041 25.449H218.961ZM222.312 23.412C223.717 23.412 224.562 23.7131 225.046 24.0939C225.516 24.4632 225.696 24.9457 225.696 25.449H226.616C226.616 24.7038 226.336 23.9378 225.615 23.3707C224.908 22.8151 223.831 22.492 222.312 22.492V23.412ZM226.156 24.989H218.501V25.909H226.156V24.989Z" fill="white"/>
<path d="M71.4466 30.4809C71.4466 27.031 68.4895 26.2096 65.2696 25.1582C62.6412 24.3039 60.9983 23.8111 60.9983 23.0225C60.9983 22.3654 61.6883 22.0697 62.9369 22.0697C64.7439 22.0697 65.6311 22.9568 65.6311 24.1396H70.888C70.888 20.9197 68.5881 18.127 62.9697 18.127C58.4027 18.127 55.7414 19.8355 55.7414 22.7925C55.7414 26.5053 59.5198 27.3267 62.6083 28.3452C65.2696 29.2323 66.1896 29.4623 66.1896 30.3166C66.1896 31.1051 65.3025 31.4337 63.8897 31.4337C61.1298 31.4337 60.2427 30.3166 60.2427 29.0352H54.9857C54.9857 32.9122 57.6142 35.3764 63.7254 35.3764C69.4424 35.3764 71.4466 33.2736 71.4466 30.4809ZM82.0925 30.7766C79.5626 30.7766 78.6754 29.6266 78.6754 26.6038V18.4555H73.4185V27.4252C73.4185 32.5508 75.9812 35.3764 80.2197 35.3764C83.7681 35.3764 85.8381 33.0436 86.4952 30.0866H87.8094L86.8238 33.0436V35.0479H92.0807V18.4555H86.8238V24.5996C86.8238 29.2652 84.951 30.7766 82.0925 30.7766ZM94.6992 18.4555V41.2905H99.9562V34.0293L98.9705 31.0723H100.285C101.139 33.2736 102.716 35.3764 106.823 35.3764C111.62 35.3764 114.019 31.4665 114.019 26.7681C114.019 22.0697 111.62 18.127 106.823 18.127C102.716 18.127 101.139 20.2298 100.285 22.4311H98.9705L99.9562 19.4741V18.4555H94.6992ZM99.9562 26.7681C99.9562 23.9425 101.533 22.7268 104.359 22.7268C107.185 22.7268 108.762 23.9425 108.762 26.7681C108.762 29.5937 107.185 30.7766 104.359 30.7766C101.533 30.7766 99.9562 29.5937 99.9562 26.7681ZM115.668 26.5381C115.668 31.2365 118.592 35.3764 124.966 35.3764C130.716 35.3764 133.443 31.598 133.772 29.1995H128.515C128.186 30.448 126.806 31.1051 124.966 31.1051C121.976 31.1051 120.596 29.758 120.596 27.8524H133.18V26.2096C133.18 21.1826 129.566 18.127 124.408 18.127C119.249 18.127 115.668 21.2811 115.668 26.5381ZM120.596 24.8953C120.596 23.6468 121.484 22.3983 124.408 22.3983C127.332 22.3983 128.252 23.6468 128.252 24.8953H120.596ZM136.058 35.0479H141.315V22.8582L149.759 23.0554V18.4555L138.884 18.1927C137.077 18.1598 136.058 19.1455 136.058 20.9526V35.0479Z" fill="white"/>
</svg>
